{
.appVersion = "983";
copyright = "Copyright © 2017 Adobe Systems Incorporated (http://www.adobe.com/).";
customParameters = (
{
name = description;
value = "Dr. Ken Lunde (project architect, glyph set definition & overall production); Masataka HATTORI 服部正貴 (production & ideograph elements)";
},
{
name = license;
value = "This Font Software is licensed under the SIL Open Font License, Version 1.1. This Font Software is distributed on an \"AS IS\" BASIS, WITHOUT WARRANTIES OR CONDITIONS OF ANY KIND, either express or implied. See the SIL Open Font License for the specific language, permissions and limitations governing your use of this Font Software.";
},
{
name = licenseURL;
value = "http://scripts.sil.org/OFL";
},
{
name = vendorID;
value = GOOG;
},
{
name = panose;
value = (
2,
2,
7,
0,
0,
0,
0,
0,
0,
0
);
},
{
name = unicodeRanges;
value = (
0,
1,
7,
28,
29,
36,
42,
43,
44,
45,
48,
49,
50,
51,
52,
54,
55,
56,
57,
59,
61,
65,
66,
68
);
},
{
name = codePageRanges;
value = (
1252,
1250,
1251,
1258,
932,
936,
949,
1361
);
},
{
name = ROS;
value = "Adobe-Identity-0";
},
{
name = glyphOrder;
value = (
.notdef,
space
);
}
);
date = "2017-03-21 12:53:25 +0000";
designer = "Ryoko NISHIZUKA 西塚涼子 (kana & ideographs); Frank Grießhammer (Latin, Greek & Cyrillic); Wenlong ZHANG 张文龙 (bopomofo); Sandoll Communications 산돌커뮤니케이션, Soohyun PARK 박수현, Yejin WE 위예진 & Donghoon HAN 한동훈 (hangul elements, letters & syllables)";
designerURL = "http://www.adobe.com/type/";
familyName = "Yaku Han MP";
fontMaster = (
{
alignmentZones = (
"{1900, 0}",
"{1100, 0}",
"{1100, 0}",
"{1100, 0}",
"{1100, 0}",
"{1100, 0}",
"{1100, 0}",
"{1100, 0}",
"{1100, 0}",
"{1100, 0}",
"{1100, 0}",
"{1100, 0}",
"{840, 0}",
"{750, 18}",
"{750, 18}",
"{750, 18}",
"{750, 18}",
"{750, 0}",
"{742, 18}",
"{713, 16}",
"{543, 19}",
"{543, 19}",
"{543, 0}",
"{535, 16}",
"{0, 0}",
"{0, -16}",
"{0, -18}",
"{0, -18}",
"{0, -18}",
"{0, -18}",
"{0, -19}",
"{-178, 0}",
"{-181, 0}",
"{-232, 0}",
"{-250, 0}",
"{-250, 0}",

glyphs = (
{
glyphname = .notdef;
lastChange = "2017-04-16 03:07:09 +0000";
layers = (
{
layerId = "835B9D74-504B-48C5-8210-8D7CFEDA13E1";
paths = (
{
closed = 1;
nodes = (
"100 -120 LINE",
"900 -120 LINE",
"900 880 LINE",
"100 880 LINE"
);
},
{
closed = 1;
nodes = (
"500 421 LINE",
"182 830 LINE",
"818 830 LINE"
);
},
{
closed = 1;
nodes = (
"532 380 LINE",
"850 789 LINE",
"850 -29 LINE"
);
},
{
closed = 1;
nodes = (
"182 -70 LINE",
"500 339 LINE",
"818 -70 LINE"
);
},
{
closed = 1;
nodes = (
"150 789 LINE",
"468 380 LINE",
"150 -29 LINE"
);
}
);
vertWidth = 1000;
width = 1000;
}
);
note = .notdef;
},
{
glyphname = "comma-han";
lastChange = "2017-04-16 03:08:51 +0000";
layers = (
{
layerId = "835B9D74-504B-48C5-8210-8D7CFEDA13E1";
paths = (
{
closed = 1;
nodes = (
"50 166 LINE",
"140 94 OFFCURVE",
"168 21 OFFCURVE",
"195 -35 CURVE SMOOTH",
"210 -67 OFFCURVE",
"231 -80 OFFCURVE",
"260 -80 CURVE SMOOTH",
"299 -80 OFFCURVE",
"324 -54 OFFCURVE",
"324 -14 CURVE SMOOTH",
"324 7 OFFCURVE",
"320 29 OFFCURVE",
"303 53 CURVE SMOOTH",
"266 109 OFFCURVE",
"193 155 OFFCURVE",
"59 179 CURVE"
);
}
);
vertWidth = 1000;
width = 524;
}
);
leftKerningGroup = "comma-han";
note = "comma-han";
unicode = 3001;
},
{
glyphname = ellipsis;
lastChange = "2017-04-16 03:07:09 +0000";
layers = (
{
layerId = "835B9D74-504B-48C5-8210-8D7CFEDA13E1";
paths = (
{
closed = 1;
nodes = (
"199 321 OFFCURVE",
"226 348 OFFCURVE",
"226 380 CURVE SMOOTH",
"226 412 OFFCURVE",
"199 439 OFFCURVE",
"167 439 CURVE SMOOTH",
"135 439 OFFCURVE",
"108 412 OFFCURVE",
"108 380 CURVE SMOOTH",
"108 348 OFFCURVE",
"135 321 OFFCURVE",
"167 321 CURVE SMOOTH"
);
},
{
closed = 1;
nodes = (
"532 321 OFFCURVE",
"559 348 OFFCURVE",
"559 380 CURVE SMOOTH",
"559 412 OFFCURVE",
"532 439 OFFCURVE",
"500 439 CURVE SMOOTH",
"468 439 OFFCURVE",
"441 412 OFFCURVE",
"441 380 CURVE SMOOTH",
"441 348 OFFCURVE",
"468 321 OFFCURVE",
"500 321 CURVE SMOOTH"
);
},
{
closed = 1;
nodes = (
"865 321 OFFCURVE",
"892 348 OFFCURVE",
"892 380 CURVE SMOOTH",
"892 412 OFFCURVE",
"865 439 OFFCURVE",
"833 439 CURVE SMOOTH",
"801 439 OFFCURVE",
"774 412 OFFCURVE",
"774 380 CURVE SMOOTH",
"774 348 OFFCURVE",
"801 321 OFFCURVE",
"833 321 CURVE SMOOTH"
);
}
);
vertWidth = 1000;
width = 1000;
}
);
note = ellipsis;
unicode = 2026;
},
{
glyphname = "period-han";
lastChange = "2017-04-16 03:09:00 +0000";
layers = (
{
layerId = "835B9D74-504B-48C5-8210-8D7CFEDA13E1";
paths = (
{
closed = 1;
nodes = (
"270 -83 OFFCURVE",
"333 -19 OFFCURVE",
"333 59 CURVE SMOOTH",
"333 137 OFFCURVE",
"270 200 OFFCURVE",
"192 200 CURVE SMOOTH",
"114 200 OFFCURVE",
"50 137 OFFCURVE",
"50 59 CURVE SMOOTH",
"50 -19 OFFCURVE",
"114 -83 OFFCURVE",
"192 -83 CURVE SMOOTH"
);
},
{
closed = 1;
nodes = (
"250 164 OFFCURVE",
"297 117 OFFCURVE",
"297 59 CURVE SMOOTH",
"297 1 OFFCURVE",
"250 -47 OFFCURVE",
"192 -47 CURVE SMOOTH",
"133 -47 OFFCURVE",
"86 1 OFFCURVE",
"86 59 CURVE SMOOTH",
"86 117 OFFCURVE",
"133 164 OFFCURVE",
"192 164 CURVE SMOOTH"
);
}
);
vertWidth = 1000;
width = 733;
}
);
leftKerningGroup = "comma-han";
note = "period-han";
unicode = 3002;
},
{
glyphname = colon.full;
lastChange = "2017-04-16 03:09:19 +0000";
layers = (
{
layerId = "835B9D74-504B-48C5-8210-8D7CFEDA13E1";
paths = (
{
closed = 1;
nodes = (
"150 73 OFFCURVE",
"187 35 OFFCURVE",
"236 35 CURVE SMOOTH",
"284 35 OFFCURVE",
"322 73 OFFCURVE",
"322 120 CURVE SMOOTH",
"322 167 OFFCURVE",
"284 206 OFFCURVE",
"236 206 CURVE SMOOTH",
"187 206 OFFCURVE",
"150 167 OFFCURVE",
"150 120 CURVE SMOOTH"
);
},
{
closed = 1;
nodes = (
"150 534 OFFCURVE",
"187 496 OFFCURVE",
"236 496 CURVE SMOOTH",
"284 496 OFFCURVE",
"322 534 OFFCURVE",
"322 581 CURVE SMOOTH",
"322 628 OFFCURVE",
"284 666 OFFCURVE",
"236 666 CURVE SMOOTH",
"187 666 OFFCURVE",
"150 628 OFFCURVE",
"150 581 CURVE SMOOTH"
);
}
);
vertWidth = 1000;
width = 472;
}
);
note = colon.full;
unicode = FF1A;
},
{
glyphname = exclam.full;
lastChange = "2017-04-16 03:09:19 +0000";
layers = (
{
layerId = "835B9D74-504B-48C5-8210-8D7CFEDA13E1";
paths = (
{
closed = 1;
nodes = (
"277 -14 OFFCURVE",
"312 22 OFFCURVE",
"312 66 CURVE SMOOTH",
"312 109 OFFCURVE",
"277 145 OFFCURVE",
"230 145 CURVE SMOOTH",
"184 145 OFFCURVE",
"150 109 OFFCURVE",
"150 66 CURVE SMOOTH",
"150 22 OFFCURVE",
"184 -14 OFFCURVE",
"230 -14 CURVE SMOOTH"
);
},
{
closed = 1;
nodes = (
"186 768 OFFCURVE",
"153 739 OFFCURVE",
"153 678 CURVE SMOOTH",
"153 628 OFFCURVE",
"162 546 OFFCURVE",
"194 367 CURVE SMOOTH",
"215 232 LINE",
"247 232 LINE",
"268 367 LINE SMOOTH",
"300 546 OFFCURVE",
"308 628 OFFCURVE",
"308 678 CURVE SMOOTH",
"308 739 OFFCURVE",
"276 768 OFFCURVE",
"231 768 CURVE SMOOTH"
);
}
);
vertWidth = 1000;
width = 462;
}
);
note = exclam.full;
unicode = FF01;
},
{
glyphname = question.full;
lastChange = "2017-04-16 03:09:19 +0000";
layers = (
{
layerId = "835B9D74-504B-48C5-8210-8D7CFEDA13E1";
paths = (
{
closed = 1;
nodes = (
"324 145 OFFCURVE",
"290 109 OFFCURVE",
"290 65 CURVE SMOOTH",
"290 22 OFFCURVE",
"324 -14 OFFCURVE",
"370 -14 CURVE SMOOTH",
"416 -14 OFFCURVE",
"451 22 OFFCURVE",
"451 65 CURVE SMOOTH",
"451 109 OFFCURVE",
"416 145 OFFCURVE",
"370 145 CURVE SMOOTH"
);
},
{
closed = 1;
nodes = (
"305 722 LINE",
"325 729 OFFCURVE",
"343 731 OFFCURVE",
"365 731 CURVE SMOOTH",
"455 731 OFFCURVE",
"515 689 OFFCURVE",
"515 603 CURVE SMOOTH",
"515 537 OFFCURVE",
"487 501 OFFCURVE",
"426 450 CURVE SMOOTH",
"362 395 OFFCURVE",
"337 369 OFFCURVE",
"337 322 CURVE SMOOTH",
"337 296 OFFCURVE",
"344 254 OFFCURVE",
"349 221 CURVE",
"385 221 LINE",
"390 282 LINE SMOOTH",
"396 335 OFFCURVE",
"421 353 OFFCURVE",
"499 401 CURVE SMOOTH",
"601 463 OFFCURVE",
"640 514 OFFCURVE",
"640 593 CURVE SMOOTH",
"640 697 OFFCURVE",
"559 768 OFFCURVE",
"399 768 CURVE SMOOTH",
"261 768 OFFCURVE",
"157 699 OFFCURVE",
"150 577 CURVE",
"164 557 OFFCURVE",
"185 546 OFFCURVE",
"210 546 CURVE SMOOTH",
"251 546 OFFCURVE",
"275 567 OFFCURVE",
"286 632 CURVE"
);
}
);
vertWidth = 1000;
width = 790;
}
);
note = question.full;
unicode = FF1F;
},
{
glyphname = semicolon.full;
lastChange = "2017-04-16 03:09:19 +0000";
layers = (
{
layerId = "835B9D74-504B-48C5-8210-8D7CFEDA13E1";
paths = (
{
closed = 1;
nodes = (
"168 -115 LINE",
"287 -63 OFFCURVE",
"330 46 OFFCURVE",
"330 136 CURVE SMOOTH",
"330 203 OFFCURVE",
"291 242 OFFCURVE",
"240 242 CURVE SMOOTH",
"189 242 OFFCURVE",
"157 204 OFFCURVE",
"157 161 CURVE SMOOTH",
"157 96 OFFCURVE",
"221 73 OFFCURVE",
"263 58 CURVE",
"257 14 OFFCURVE",
"229 -45 OFFCURVE",
"150 -84 CURVE"
);
},
{
closed = 1;
nodes = (
"158 534 OFFCURVE",
"196 496 OFFCURVE",
"244 496 CURVE SMOOTH",
"292 496 OFFCURVE",
"330 534 OFFCURVE",
"330 581 CURVE SMOOTH",
"330 628 OFFCURVE",
"292 666 OFFCURVE",
"244 666 CURVE SMOOTH",
"196 666 OFFCURVE",
"158 628 OFFCURVE",
"158 581 CURVE SMOOTH"
);
}
);
vertWidth = 1000;
width = 480;
}
);
note = semicolon.full;
unicode = FF1B;
},
{
glyphname = blacklenticularbracketleft;
lastChange = "2017-04-16 03:09:33 +0000";
layers = (
{
layerId = "835B9D74-504B-48C5-8210-8D7CFEDA13E1";
paths = (
{
closed = 1;
nodes = (
"543 -74 LINE",
"385 -1 OFFCURVE",
"280 156 OFFCURVE",
"280 380 CURVE SMOOTH",
"280 604 OFFCURVE",
"385 761 OFFCURVE",
"543 834 CURVE",
"543 851 LINE",
"200 851 LINE",
"200 -91 LINE",
"543 -91 LINE"
);
}
);
vertWidth = 1000;
width = 573;
}
);
note = blacklenticularbracketleft;
unicode = 3010;
},
{
glyphname = blacklenticularbracketright;
lastChange = "2017-04-16 03:10:47 +0000";
layers = (
{
layerId = "835B9D74-504B-48C5-8210-8D7CFEDA13E1";
paths = (
{
closed = 1;
nodes = (
"30 -91 LINE",
"373 -91 LINE",
"373 851 LINE",
"30 851 LINE",
"30 834 LINE",
"188 761 OFFCURVE",
"293 604 OFFCURVE",
"293 380 CURVE SMOOTH",
"293 156 OFFCURVE",
"188 -1 OFFCURVE",
"30 -74 CURVE"
);
}
);
vertWidth = 1000;
width = 573;
}
);
note = blacklenticularbracketright;
unicode = 3011;
},
{
glyphname = braceleft.full;
lastChange = "2017-04-16 03:09:33 +0000";
layers = (
{
layerId = "835B9D74-504B-48C5-8210-8D7CFEDA13E1";
paths = (
{
closed = 1;
nodes = (
"599 839 LINE",
"599 876 LINE",
"555 876 LINE SMOOTH",
"407 876 OFFCURVE",
"317 827 OFFCURVE",
"317 730 CURVE SMOOTH",
"317 643 OFFCURVE",
"357 572 OFFCURVE",
"357 503 CURVE SMOOTH",
"357 451 OFFCURVE",
"326 422 OFFCURVE",
"200 399 CURVE",
"200 362 LINE",
"326 339 OFFCURVE",
"357 309 OFFCURVE",
"357 258 CURVE SMOOTH",
"357 189 OFFCURVE",
"317 117 OFFCURVE",
"317 31 CURVE SMOOTH",
"317 -67 OFFCURVE",
"407 -115 OFFCURVE",
"555 -115 CURVE SMOOTH",
"599 -115 LINE",
"599 -79 LINE",
"555 -75 LINE SMOOTH",
"470 -68 OFFCURVE",
"435 -33 OFFCURVE",
"435 36 CURVE SMOOTH",
"435 103 OFFCURVE",
"451 170 OFFCURVE",
"451 236 CURVE SMOOTH",
"451 301 OFFCURVE",
"407 356 OFFCURVE",
"305 380 CURVE",
"407 404 OFFCURVE",
"451 459 OFFCURVE",
"451 525 CURVE SMOOTH",
"451 591 OFFCURVE",
"435 655 OFFCURVE",
"435 726 CURVE SMOOTH",
"435 794 OFFCURVE",
"470 831 OFFCURVE",
"555 836 CURVE SMOOTH"
);
}
);
vertWidth = 1000;
width = 629;
}
);
note = braceleft.full;
unicode = FF5B;
},
{
glyphname = braceright.full;
lastChange = "2017-04-16 03:10:47 +0000";
layers = (
{
layerId = "835B9D74-504B-48C5-8210-8D7CFEDA13E1";
paths = (
{
closed = 1;
nodes = (
"429 398 LINE",
"303 421 OFFCURVE",
"272 451 OFFCURVE",
"272 502 CURVE SMOOTH",
"272 571 OFFCURVE",
"312 643 OFFCURVE",
"312 729 CURVE SMOOTH",
"312 827 OFFCURVE",
"222 875 OFFCURVE",
"74 875 CURVE SMOOTH",
"30 875 LINE",
"30 839 LINE",
"74 835 LINE SMOOTH",
"159 828 OFFCURVE",
"194 793 OFFCURVE",
"194 724 CURVE SMOOTH",
"194 657 OFFCURVE",
"178 590 OFFCURVE",
"178 524 CURVE SMOOTH",
"178 459 OFFCURVE",
"222 404 OFFCURVE",
"324 380 CURVE",
"222 356 OFFCURVE",
"178 301 OFFCURVE",
"178 235 CURVE SMOOTH",
"178 169 OFFCURVE",
"194 105 OFFCURVE",
"194 34 CURVE SMOOTH",
"194 -34 OFFCURVE",
"159 -71 OFFCURVE",
"74 -76 CURVE SMOOTH",
"30 -79 LINE",
"30 -116 LINE",
"74 -116 LINE SMOOTH",
"222 -116 OFFCURVE",
"312 -67 OFFCURVE",
"312 30 CURVE SMOOTH",
"312 117 OFFCURVE",
"272 188 OFFCURVE",
"272 257 CURVE SMOOTH",
"272 309 OFFCURVE",
"303 338 OFFCURVE",
"429 361 CURVE"
);
}
);
vertWidth = 1000;
width = 629;
}
);
note = braceright.full;
unicode = FF5D;
},
{
glyphname = cornerbracketleft;
lastChange = "2017-04-16 03:09:33 +0000";
layers = (
{
layerId = "835B9D74-504B-48C5-8210-8D7CFEDA13E1";
paths = (
{
closed = 1;
nodes = (
"200 211 LINE",
"241 211 LINE",
"241 812 LINE",
"522 812 LINE",
"522 851 LINE",
"200 851 LINE"
);
}
);
vertWidth = 1000;
width = 552;
}
);
note = cornerbracketleft;
unicode = 300C;
},
{
glyphname = cornerbracketright;
lastChange = "2017-04-16 03:10:47 +0000";
layers = (
{
layerId = "835B9D74-504B-48C5-8210-8D7CFEDA13E1";
paths = (
{
closed = 1;
nodes = (
"352 549 LINE",
"311 549 LINE",
"311 -52 LINE",
"30 -52 LINE",
"30 -91 LINE",
"352 -91 LINE"
);
}
);
vertWidth = 1000;
width = 552;
}
);
note = cornerbracketright;
unicode = 300D;
},
{
glyphname = dblanglebracketleft;
lastChange = "2017-04-16 03:09:29 +0000";
layers = (
{
layerId = "835B9D74-504B-48C5-8210-8D7CFEDA13E1";
paths = (
{
closed = 1;
nodes = (
"240 380 LINE",
"501 836 LINE",
"472 854 LINE",
"200 380 LINE",
"472 -94 LINE",
"501 -76 LINE"
);
},
{
closed = 1;
nodes = (
"382 380 LINE",
"643 836 LINE",
"614 854 LINE",
"342 380 LINE",
"614 -94 LINE",
"643 -76 LINE"
);
}
);
vertWidth = 1000;
width = 673;
}
);
note = dblanglebracketleft;
unicode = 300A;
},
{
glyphname = dblanglebracketright;
lastChange = "2017-04-16 03:10:47 +0000";
layers = (
{
layerId = "835B9D74-504B-48C5-8210-8D7CFEDA13E1";
paths = (
{
closed = 1;
nodes = (
"201 -94 LINE",
"473 380 LINE",
"201 854 LINE",
"172 836 LINE",
"433 380 LINE",
"172 -76 LINE"
);
},
{
closed = 1;
nodes = (
"59 -94 LINE",
"331 380 LINE",
"59 854 LINE",
"30 836 LINE",
"291 380 LINE",
"30 -76 LINE"
);
}
);
vertWidth = 1000;
width = 673;
}
);
note = dblanglebracketright;
unicode = 300B;
},
{
glyphname = tortoiseshellbracketleft;
lastChange = "2017-04-16 03:09:33 +0000";
layers = (
{
layerId = "835B9D74-504B-48C5-8210-8D7CFEDA13E1";
paths = (
{
closed = 1;
nodes = (
"432 -93 LINE",
"450 -58 LINE",
"241 40 LINE",
"241 720 LINE",
"450 818 LINE",
"432 853 LINE",
"200 744 LINE",
"200 16 LINE"
);
}
);
vertWidth = 1000;
width = 480;
}
);
note = tortoiseshellbracketleft;
unicode = 3014;
},
{
glyphname = tortoiseshellbracketright;
lastChange = "2017-04-16 03:10:47 +0000";
layers = (
{
layerId = "835B9D74-504B-48C5-8210-8D7CFEDA13E1";
paths = (
{
closed = 1;
nodes = (
"48 -93 LINE",
"280 16 LINE",
"280 744 LINE",
"48 853 LINE",
"30 818 LINE",
"239 719 LINE",
"239 41 LINE",
"30 -58 LINE"
);
}
);
vertWidth = 1000;
width = 480;
}
);
note = tortoiseshellbracketright;
unicode = 3015;
},
{
glyphname = whitecornerbracketleft;
lastChange = "2017-04-16 03:09:33 +0000";
layers = (
{
layerId = "835B9D74-504B-48C5-8210-8D7CFEDA13E1";
paths = (
{
closed = 1;
nodes = (
"551 705 LINE",
"551 851 LINE",
"200 851 LINE",
"200 206 LINE",
"350 206 LINE",
"350 705 LINE"
);
},
{
closed = 1;
nodes = (
"523 823 LINE",
"523 733 LINE",
"322 733 LINE",
"322 234 LINE",
"228 234 LINE",
"228 823 LINE"
);
}
);
vertWidth = 1000;
width = 581;
}
);
note = whitecornerbracketleft;
unicode = 300E;
},
{
glyphname = whitecornerbracketright;
lastChange = "2017-04-16 03:10:47 +0000";
layers = (
{
layerId = "835B9D74-504B-48C5-8210-8D7CFEDA13E1";
paths = (
{
closed = 1;
nodes = (
"30 55 LINE",
"30 -91 LINE",
"381 -91 LINE",
"381 554 LINE",
"231 554 LINE",
"231 55 LINE"
);
},
{
closed = 1;
nodes = (
"58 -63 LINE",
"58 27 LINE",
"259 27 LINE",
"259 526 LINE",
"353 526 LINE",
"353 -63 LINE"
);
}
);
vertWidth = 1000;
width = 581;
}
);
note = whitecornerbracketright;
unicode = 300F;
},
{
glyphname = whitelenticularbracketleft;
lastChange = "2017-04-16 03:09:33 +0000";
layers = (
{
layerId = "835B9D74-504B-48C5-8210-8D7CFEDA13E1";
paths = (
{
closed = 1;
nodes = (
"548 -71 LINE",
"392 -2 OFFCURVE",
"286 156 OFFCURVE",
"286 380 CURVE SMOOTH",
"286 604 OFFCURVE",
"392 762 OFFCURVE",
"548 831 CURVE",
"548 851 LINE",
"200 851 LINE",
"200 -91 LINE",
"548 -91 LINE"
);
},
{
closed = 1;
nodes = (
"228 -63 LINE",
"228 823 LINE",
"475 823 LINE",
"386 767 OFFCURVE",
"258 635 OFFCURVE",
"258 380 CURVE SMOOTH",
"258 125 OFFCURVE",
"386 -7 OFFCURVE",
"475 -63 CURVE"
);
}
);
vertWidth = 1000;
width = 578;
}
);
note = whitelenticularbracketleft;
unicode = 3016;
},
{
glyphname = whitelenticularbracketright;
lastChange = "2017-04-16 03:10:47 +0000";
layers = (
{
layerId = "835B9D74-504B-48C5-8210-8D7CFEDA13E1";
paths = (
{
closed = 1;
nodes = (
"378 -91 LINE",
"378 851 LINE",
"30 851 LINE",
"30 831 LINE",
"185 762 OFFCURVE",
"292 604 OFFCURVE",
"292 380 CURVE SMOOTH",
"292 156 OFFCURVE",
"185 -2 OFFCURVE",
"30 -71 CURVE",
"30 -91 LINE"
);
},
{
closed = 1;
nodes = (
"320 635 OFFCURVE",
"192 767 OFFCURVE",
"102 823 CURVE",
"350 823 LINE",
"350 -63 LINE",
"102 -63 LINE",
"192 -7 OFFCURVE",
"320 125 OFFCURVE",
"320 380 CURVE SMOOTH"
);
}
);
vertWidth = 1000;
width = 578;
}
);
note = whitelenticularbracketright;
unicode = 3017;
},
{
glyphname = bracketleft.full;
lastChange = "2017-04-16 03:09:33 +0000";
layers = (
{
layerId = "835B9D74-504B-48C5-8210-8D7CFEDA13E1";
paths = (
{
closed = 1;
nodes = (
"200 -91 LINE",
"450 -91 LINE",
"450 -52 LINE",
"241 -52 LINE",
"241 812 LINE",
"450 812 LINE",
"450 851 LINE",
"200 851 LINE"
);
}
);
vertWidth = 1000;
width = 480;
}
);
note = bracketleft.full;
unicode = FF3B;
},
{
glyphname = bracketright.full;
lastChange = "2017-04-16 03:10:47 +0000";
layers = (
{
layerId = "835B9D74-504B-48C5-8210-8D7CFEDA13E1";
paths = (
{
closed = 1;
nodes = (
"280 -91 LINE",
"280 851 LINE",
"30 851 LINE",
"30 812 LINE",
"239 812 LINE",
"239 -52 LINE",
"30 -52 LINE",
"30 -91 LINE"
);
}
);
vertWidth = 1000;
width = 480;
}
);
note = bracketright.full;
unicode = FF3D;
},
{
glyphname = parenleft.full;
lastChange = "2017-04-16 03:09:33 +0000";
layers = (
{
layerId = "835B9D74-504B-48C5-8210-8D7CFEDA13E1";
paths = (
{
closed = 1;
nodes = (
"200 137 OFFCURVE",
"339 -6 OFFCURVE",
"484 -93 CURVE",
"499 -74 LINE",
"386 23 OFFCURVE",
"296 162 OFFCURVE",
"296 380 CURVE SMOOTH",
"296 598 OFFCURVE",
"386 737 OFFCURVE",
"499 834 CURVE",
"484 853 LINE",
"339 766 OFFCURVE",
"200 623 OFFCURVE",
"200 380 CURVE SMOOTH"
);
}
);
vertWidth = 1000;
width = 529;
}
);
note = parenleft.full;
unicode = FF08;
},
{
glyphname = parenright.full;
lastChange = "2017-04-16 03:10:47 +0000";
layers = (
{
layerId = "835B9D74-504B-48C5-8210-8D7CFEDA13E1";
paths = (
{
closed = 1;
nodes = (
"30 834 LINE",
"143 737 OFFCURVE",
"233 598 OFFCURVE",
"233 380 CURVE SMOOTH",
"233 162 OFFCURVE",
"143 23 OFFCURVE",
"30 -74 CURVE",
"45 -93 LINE",
"190 -6 OFFCURVE",
"329 137 OFFCURVE",
"329 380 CURVE SMOOTH",
"329 623 OFFCURVE",
"190 766 OFFCURVE",
"45 853 CURVE"
);
}
);
vertWidth = 1000;
width = 529;
}
);
note = parenright.full;
unicode = FF09;
},
{
glyphname = "dot-kata";
lastChange = "2017-04-16 03:09:19 +0000";
layers = (
{
layerId = "835B9D74-504B-48C5-8210-8D7CFEDA13E1";
paths = (
{
closed = 1;
nodes = (
"372 441 OFFCURVE",
"322 491 OFFCURVE",
"261 491 CURVE SMOOTH",
"200 491 OFFCURVE",
"150 441 OFFCURVE",
"150 380 CURVE SMOOTH",
"150 319 OFFCURVE",
"200 269 OFFCURVE",
"261 269 CURVE SMOOTH",
"322 269 OFFCURVE",
"372 319 OFFCURVE",
"372 380 CURVE SMOOTH"
);
}
